HIERARCHY
ROOT Hips
{
	OFFSET -0.001795 -0.223333 0.028219
	CHANNELS 6 Xposition Yposition Zposition Zrotation Yrotation Xrotation 
	JOINT LeftUpLeg
	{
		OFFSET 0.069520 -0.091406 -0.006815
		CHANNELS 3 Zrotation Yrotation Xrotation
		JOINT LeftLeg
		{
			OFFSET 0.034277 -0.375199 -0.004496
			CHANNELS 3 Zrotation Yrotation Xrotation
			JOINT LeftFoot
			{
				OFFSET -0.013596 -0.397961 -0.043693
				CHANNELS 3 Zrotation Yrotation Xrotation
				JOINT LeftToe
				{
					OFFSET 0.026358 -0.055791 0.119288
					CHANNELS 3 Zrotation Yrotation Xrotation
					End Site
					{
						OFFSET 0.000000 0.000000 0.000000
					}
				}
			}
		}
	}
	JOINT RightUpLeg
	{
		OFFSET -0.067670 -0.090522 -0.004320
		CHANNELS 3 Zrotation Yrotation Xrotation
		JOINT RightLeg
		{
			OFFSET -0.038290 -0.382569 -0.008850
			CHANNELS 3 Zrotation Yrotation Xrotation
			JOINT RightFoot
			{
				OFFSET 0.015774 -0.398415 -0.042312
				CHANNELS 3 Zrotation Yrotation Xrotation
				JOINT RightToe
				{
					OFFSET -0.025372 -0.048144 0.123348
					CHANNELS 3 Zrotation Yrotation Xrotation
					End Site
					{
						OFFSET 0.000000 0.000000 0.000000
					}
				}
			}
		}
	}
	JOINT Spine
	{
		OFFSET -0.002533 0.108963 -0.026696
		CHANNELS 3 Zrotation Yrotation Xrotation
		JOINT Spine1
		{
			OFFSET 0.005487 0.135180 0.001092
			CHANNELS 3 Zrotation Yrotation Xrotation
			JOINT Spine2
			{
				OFFSET 0.001457 0.052922 0.025425
				CHANNELS 3 Zrotation Yrotation Xrotation
				JOINT Neck
				{
					OFFSET -0.002778 0.213870 -0.042857
					CHANNELS 3 Zrotation Yrotation Xrotation
					JOINT Head
					{
						OFFSET 0.005152 0.064970 0.051349
						CHANNELS 3 Zrotation Yrotation Xrotation
						End Site
						{
							OFFSET 0.000000 0.000000 0.000000
						}
					}
				}
				JOINT LeftShoulder
				{
					OFFSET 0.078845 0.121749 -0.034090
					CHANNELS 3 Zrotation Yrotation Xrotation
					JOINT LeftArm
					{
						OFFSET 0.090977 0.030469 -0.008868
						CHANNELS 3 Zrotation Yrotation Xrotation
						JOINT LeftForeArm
						{
							OFFSET 0.259612 -0.012772 -0.027456
							CHANNELS 3 Zrotation Yrotation Xrotation
							JOINT LeftHand
							{
								OFFSET 0.249234 0.008986 -0.001171
								CHANNELS 3 Zrotation Yrotation Xrotation
								End Site
								{
									OFFSET 0.000000 0.000000 0.000000
								}
							}
						}
					}
				}
				JOINT RightShoulder
				{
					OFFSET -0.081759 0.118833 -0.038615
					CHANNELS 3 Zrotation Yrotation Xrotation
					JOINT RightArm
					{
						OFFSET -0.096012 0.032551 -0.009143
						CHANNELS 3 Zrotation Yrotation Xrotation
						JOINT RightForeArm
						{
							OFFSET -0.253742 -0.013329 -0.021401
							CHANNELS 3 Zrotation Yrotation Xrotation
							JOINT RightHand
							{
								OFFSET -0.255298 0.007772 -0.005559
								CHANNELS 3 Zrotation Yrotation Xrotation
								End Site
								{
									OFFSET 0.000000 0.000000 0.000000
								}
							}
						}
					}
				}
			}
		}
	}
}
MOTION
Frames: 14
Frame Time: 0.050000
0.000000 0.884879 0.000000 -2.297022 4.482654 5.262853 9.778488 -0.795998 -28.961720 -7.337822 1.380520 40.171856 8.898768 18.090360 -3.957038 0.000000 0.000000 0.000000 -1.279699 2.818499 -36.509631 0.436965 0.811057 49.573437 -2.887093 -6.156952 -3.550325 0.000000 0.000000 0.000000 5.783410 -1.459495 13.178731 -0.916860 0.594399 -5.917456 -3.888184 2.485754 12.278369 11.554498 -4.463872 -21.733693 0.000000 0.000000 0.000000 2.532005 -9.301822 3.185559 -36.794642 -29.584244 3.320654 128.978842 -45.674540 -79.441716 0.000000 0.000000 0.000000 1.269883 0.399468 0.153214 43.661703 32.605068 7.144265 -133.876772 52.842680 -85.786327 0.000000 0.000000 0.000000 
0.000358 0.882353 -0.000646 -2.756786 4.261324 6.583228 11.032542 -0.551133 -30.644731 -8.917655 2.249112 41.181161 9.394296 19.225493 -4.624491 0.000000 0.000000 0.000000 -0.385388 3.162961 -37.145726 -0.687701 1.539927 49.234305 -2.615282 -5.341928 -3.764463 0.000000 0.000000 0.000000 5.981670 -1.355708 11.663459 -0.041157 0.191241 -4.780520 -4.072609 2.388796 11.756447 11.142456 -4.356448 -21.002927 0.000000 0.000000 0.000000 1.579948 -7.345247 2.527571 -35.061697 -30.975177 3.509293 125.426703 -45.165674 -74.476487 0.000000 0.000000 0.000000 0.382454 -1.027155 -0.366179 44.177884 34.245357 8.001430 -135.185060 52.568763 -87.103461 0.000000 0.000000 0.000000 
0.000683 0.878819 -0.001389 -2.719956 3.683397 5.401464 11.241903 -0.408880 -29.447993 -9.688228 2.751771 42.175890 9.955741 20.346721 -6.777587 0.000000 0.000000 0.000000 -0.922569 3.018652 -36.433928 0.303211 1.073055 49.091891 -2.830768 -5.190404 -5.697050 0.000000 0.000000 0.000000 5.668902 -1.384723 12.702044 0.624557 -0.110630 -4.339985 -4.307765 3.188069 11.950917 11.663140 -4.727213 -20.489035 0.000000 0.000000 0.000000 2.590440 -7.736344 2.708313 -33.950696 -31.968503 3.524182 120.153173 -43.402625 -66.948309 0.000000 0.000000 0.000000 0.799017 -0.239793 -0.075394 40.358036 35.785109 7.539127 -131.956911 48.459045 -76.981809 0.000000 0.000000 0.000000 
0.000798 0.874717 -0.001908 -2.959400 4.258107 5.587615 11.085728 -0.536327 -31.444568 -9.290221 2.531609 44.968060 10.587856 21.789146 -5.282546 0.000000 0.000000 0.000000 -0.983801 3.042328 -38.083335 0.273462 0.992762 51.547036 -2.292595 -3.546469 -5.859506 0.000000 0.000000 0.000000 5.942435 -1.414575 12.473468 0.829056 -0.239361 -3.297046 -4.276563 2.352380 11.801463 11.457008 -4.698478 -20.297816 0.000000 0.000000 0.000000 3.040225 -6.734857 2.427130 -32.291721 -32.004779 3.286601 116.172230 -42.738018 -61.886780 0.000000 0.000000 0.000000 -0.780037 -2.101899 -0.727636 40.101593 37.082547 8.017952 -130.455279 46.040257 -72.156047 0.000000 0.000000 0.000000 
0.000897 0.870396 -0.002033 -3.227313 4.296178 5.292447 11.417241 -0.461137 -31.774521 -9.521124 2.683851 46.258981 10.776381 22.205362 -6.353330 0.000000 0.000000 0.000000 -1.046706 3.028879 -38.272162 0.400254 0.903997 51.890725 -2.338794 -3.799871 -5.582810 0.000000 0.000000 0.000000 5.496595 -1.399287 12.996498 1.488431 -0.510089 -3.601869 -4.326139 2.462759 12.225578 11.806640 -5.050442 -19.682269 0.000000 0.000000 0.000000 2.613415 -7.229358 2.551209 -28.954800 -31.960260 2.682076 112.280040 -41.310356 -56.725953 0.000000 0.000000 0.000000 -1.036341 -1.409369 -0.478243 37.218905 36.481049 6.969631 -128.895734 43.939460 -67.299040 0.000000 0.000000 0.000000 
0.000977 0.867418 -0.001578 -3.363870 4.426931 5.469030 11.570278 -0.449770 -32.390777 -9.685894 2.802379 47.603707 10.689625 22.034033 -6.419336 0.000000 0.000000 0.000000 -1.019951 3.049619 -38.699785 -0.097811 1.200160 52.717451 -1.954413 -2.131893 -6.719862 0.000000 0.000000 0.000000 5.614973 -1.432962 13.085347 1.557112 -0.544481 -3.498405 -4.351919 2.197759 12.297505 11.718225 -4.948232 -20.019230 0.000000 0.000000 0.000000 3.072885 -7.028378 2.516558 -27.764996 -32.404995 2.562995 111.474492 -40.416000 -54.813364 0.000000 0.000000 0.000000 -1.252457 -1.921808 -0.650856 35.276604 37.491952 6.749985 -127.149173 43.234546 -64.539172 0.000000 0.000000 0.000000 
0.001225 0.866353 -0.000688 -3.305834 4.199532 5.231910 11.751892 -0.372398 -32.249770 -9.886900 2.972351 47.743116 10.892916 22.484427 -6.339958 0.000000 0.000000 0.000000 -1.026711 3.060902 -38.442449 -0.351262 1.420658 52.750321 -1.902009 -1.857992 -6.923559 0.000000 0.000000 0.000000 5.500603 -1.440000 13.407230 1.434679 -0.492011 -3.521784 -4.440822 1.982567 12.276452 12.087037 -5.210346 -20.027066 0.000000 0.000000 0.000000 3.332869 -7.003541 2.518759 -26.213952 -32.561032 2.334961 110.397479 -38.563612 -51.493335 0.000000 0.000000 0.000000 -1.405537 -2.257615 -0.757667 33.395749 37.846715 6.309092 -125.615436 42.594660 -62.322104 0.000000 0.000000 0.000000 
0.001568 0.866999 0.000247 -3.348556 3.982188 5.289006 11.972688 -0.292615 -32.335952 -10.048966 3.140485 48.124773 10.726478 22.119530 -6.001050 0.000000 0.000000 0.000000 -1.004053 3.081877 -38.195434 -0.586970 1.621495 52.544042 -1.809001 -1.385295 -7.265736 0.000000 0.000000 0.000000 5.376229 -1.429858 13.506595 1.553918 -0.552758 -3.388932 -4.493020 1.607992 12.079903 12.435211 -5.425025 -20.237244 0.000000 0.000000 0.000000 3.452225 -6.412732 2.339173 -25.225775 -33.472495 2.342799 110.510662 -36.751765 -49.035699 0.000000 0.000000 0.000000 -1.594529 -2.187047 -0.715364 31.694893 38.861343 6.101217 -124.320270 42.370143 -61.106863 0.000000 0.000000 0.000000 
0.001909 0.868535 0.001030 -3.334962 3.836180 5.466788 11.925625 -0.287519 -32.003369 -9.997917 3.125863 47.572401 10.805492 22.298768 -5.903249 0.000000 0.000000 0.000000 -0.983874 3.079700 -37.796773 -0.662314 1.682869 51.719228 -1.755406 -1.090645 -7.502336 0.000000 0.000000 0.000000 5.284107 -1.429776 13.639645 1.794562 -0.651337 -3.521730 -4.699644 1.666863 12.296543 13.176594 -5.709676 -20.999586 0.000000 0.000000 0.000000 4.269269 -6.743862 2.481686 -25.081719 -34.028075 2.384872 112.355148 -34.938429 -48.157153 0.000000 0.000000 0.000000 -1.745469 -2.398725 -0.782752 30.019288 39.778305 5.860298 -123.526415 42.387116 -60.397106 0.000000 0.000000 0.000000 
0.002113 0.869964 0.001843 -3.466940 3.644756 5.704476 12.491704 -0.128963 -32.027305 -10.582865 3.507616 47.361934 10.861946 22.430557 -5.460637 0.000000 0.000000 0.000000 -0.992575 3.090952 -37.612478 -0.651134 1.704609 50.968556 -1.498070 -0.131788 -7.757833 0.000000 0.000000 0.000000 5.371652 -1.455664 13.744394 1.863873 -0.686811 -3.444973 -4.760302 1.636473 12.148595 13.615583 -5.856441 -21.515906 0.000000 0.000000 0.000000 4.428629 -6.390287 2.383770 -25.150647 -34.510881 2.490108 113.517534 -34.347505 -48.178182 0.000000 0.000000 0.000000 -1.856204 -2.340970 -0.753024 28.981925 40.104899 5.649416 -123.500364 42.786649 -61.136236 0.000000 0.000000 0.000000 
0.002193 0.870965 0.002794 -3.549113 3.520252 5.962984 12.668026 -0.074217 -32.032840 -10.760372 3.630475 47.031456 10.927793 22.582579 -5.256315 0.000000 0.000000 0.000000 -1.137683 3.052189 -37.461966 -0.468209 1.603735 50.330561 -1.320961 0.407472 -7.713038 0.000000 0.000000 0.000000 5.344943 -1.467907 13.879232 1.950716 -0.729484 -3.366962 -4.739826 1.480888 12.234416 13.607255 -5.764324 -22.019360 0.000000 0.000000 0.000000 4.486740 -6.284491 2.348894 -25.712120 -34.104179 2.531710 115.656835 -34.460857 -49.841313 0.000000 0.000000 0.000000 -1.892720 -2.197459 -0.696463 28.943307 40.501237 5.715063 -123.705043 43.588013 -62.656061 0.000000 0.000000 0.000000 
0.002298 0.871024 0.003732 -3.624873 3.220510 6.089206 13.086205 0.063855 -32.074469 -11.128874 3.913629 46.936884 10.870216 22.461025 -4.839302 0.000000 0.000000 0.000000 -0.985926 3.111949 -37.117799 -0.733255 1.814345 49.622359 -1.155003 1.053697 -7.876767 0.000000 0.000000 0.000000 5.282420 -1.463446 13.961125 2.103514 -0.815514 -3.058198 -4.699203 1.540560 11.966117 13.768016 -5.741216 -22.507488 0.000000 0.000000 0.000000 3.919469 -6.136856 2.273945 -26.828437 -32.960670 2.557253 117.717955 -36.347737 -54.049437 0.000000 0.000000 0.000000 -1.333948 -2.156233 -0.703819 29.938157 40.419257 5.987949 -125.419262 45.219030 -66.872391 0.000000 0.000000 0.000000 
0.002542 0.869994 0.004445 -3.666040 2.946937 6.273118 13.270315 0.144884 -32.446063 -11.464133 4.202787 47.286167 11.080305 22.915143 -4.483265 0.000000 0.000000 0.000000 -1.125937 3.117769 -37.292272 -0.690721 1.855938 49.652494 -1.066812 1.524761 -8.134620 0.000000 0.000000 0.000000 5.255325 -1.490567 14.298588 2.053326 -0.795815 -3.041219 -4.340654 1.596628 11.824073 14.078940 -5.812560 -23.014511 0.000000 0.000000 0.000000 2.705647 -5.977230 2.157509 -27.811065 -31.124621 2.394186 121.719662 -38.403570 -60.475497 0.000000 0.000000 0.000000 -0.607044 -2.158645 -0.736668 31.075642 39.954720 6.176238 -127.828534 46.679314 -71.720162 0.000000 0.000000 0.000000 
0.002954 0.869097 0.004717 -3.727131 2.903823 6.286863 13.063857 0.100520 -32.658964 -11.238565 4.095207 47.461690 11.230448 23.243017 -4.653588 0.000000 0.000000 0.000000 -1.216577 3.095018 -37.286758 -0.820245 1.945935 49.759871 -0.982492 1.866116 -8.235147 0.000000 0.000000 0.000000 5.226372 -1.533328 14.788399 2.220574 -0.870979 -3.013079 -4.373021 1.619874 11.728338 14.131298 -5.688135 -23.668897 0.000000 0.000000 0.000000 2.031858 -6.007251 2.129870 -28.528878 -29.529516 2.196780 125.498950 -39.696408 -66.179955 0.000000 0.000000 0.000000 0.035996 -2.076214 -0.738491 31.911349 38.833657 6.090574 -129.355068 47.028453 -73.966441 0.000000 0.000000 0.000000 
